# Blender 4.4.0
# www.blender.org
o lp_shuriken_e
v 0.707107 0.433188 -0.707107
v 0.923879 0.751699 -0.382684
v 0.878381 0.800000 -0.363838
v 0.707107 0.751699 -0.707107
v 0.672284 0.800000 -0.672284
v 0.382683 0.751699 -0.923880
v 0.363837 0.800000 -0.878381
v 0.783891 0.800000 -0.324698
v 0.739104 0.752454 -0.306147
v 0.599964 0.800000 -0.599964
v 0.565685 0.752454 -0.565686
v 0.324698 0.800000 -0.783891
v 0.306146 0.752454 -0.739104
v 0.000000 0.668784 -1.001725
v -0.707107 0.433188 -0.707107
v 0.000000 0.800000 -0.950753
v 0.000000 0.751699 -1.000000
v -0.923879 0.751699 -0.382684
v -0.878381 0.800000 -0.363838
v -0.707107 0.751699 -0.707107
v -0.672284 0.800000 -0.672284
v -0.382683 0.751699 -0.923880
v -0.363837 0.800000 -0.878381
v 0.000000 0.752454 -0.800000
v 0.000000 0.800000 -0.848477
v -0.783891 0.800000 -0.324698
v -0.739104 0.752454 -0.306147
v -0.599964 0.800000 -0.599964
v -0.565685 0.752454 -0.565686
v -0.324698 0.800000 -0.783891
v -0.306146 0.752454 -0.739104
v 1.000414 0.668990 0.000000
v 0.707107 0.433188 0.707107
v 1.000000 0.751699 0.000000
v 0.950753 0.800000 0.000000
v 0.923879 0.751699 0.382684
v 0.878381 0.800000 0.363838
v 0.707107 0.751699 0.707107
v 0.672284 0.800000 0.672284
v 0.382683 0.751699 0.923880
v 0.363837 0.800000 0.878381
v 0.848477 0.800000 0.000000
v 0.800000 0.752454 0.000000
v 0.783891 0.800000 0.324698
v 0.739104 0.752454 0.306147
v 0.599964 0.800000 0.599964
v 0.565685 0.752454 0.565686
v 0.324698 0.800000 0.783891
v 0.306146 0.752454 0.739104
v -1.000414 0.668990 0.000000
v 0.000000 0.668784 1.001725
v -0.707107 0.433188 0.707107
v 0.000000 0.800000 0.950753
v 0.000000 0.751699 1.000000
v -1.000000 0.751699 0.000000
v -0.950753 0.800000 0.000000
v -0.923879 0.751699 0.382684
v -0.878381 0.800000 0.363838
v -0.707107 0.751699 0.707107
v -0.672284 0.800000 0.672284
v -0.382683 0.751699 0.923880
v -0.363837 0.800000 0.878381
v 0.000000 0.752454 0.800000
v 0.000000 0.800000 0.848477
v -0.848477 0.800000 0.000000
v -0.800000 0.752454 0.000000
v -0.783891 0.800000 0.324698
v -0.739104 0.752454 0.306147
v -0.599964 0.800000 0.599964
v -0.565685 0.752454 0.565686
v -0.324698 0.800000 0.783891
v -0.306146 0.752454 0.739104
v 1.527351 0.000000 -1.527351
v 0.707107 -0.433188 -0.707107
v 0.923880 0.000000 -0.382684
v 0.707107 0.000000 -0.707107
v 0.382683 0.000000 -0.923880
v 0.739104 0.000000 -0.306147
v 0.565685 0.000000 -0.565686
v 0.306146 0.000000 -0.739104
v 0.923879 -0.751699 -0.382684
v 0.878381 -0.800000 -0.363838
v 0.707107 -0.751699 -0.707107
v 0.672284 -0.800000 -0.672284
v 0.382683 -0.751699 -0.923880
v 0.363837 -0.800000 -0.878381
v 0.783891 -0.800000 -0.324698
v 0.739104 -0.752454 -0.306147
v 0.599964 -0.800000 -0.599964
v 0.565685 -0.752454 -0.565686
v 0.324698 -0.800000 -0.783891
v 0.306146 -0.752454 -0.739104
v -1.527351 0.000000 -1.527351
v 0.000000 0.000000 -5.091169
v 0.000000 -0.668784 -1.001725
v -0.707107 -0.433188 -0.707107
v 0.000000 0.000000 -1.000000
v -0.923880 0.000000 -0.382684
v -0.707107 0.000000 -0.707107
v -0.382683 0.000000 -0.923880
v 0.000000 0.000000 -0.800000
v -0.739104 0.000000 -0.306147
v -0.565685 0.000000 -0.565686
v -0.306146 0.000000 -0.739104
v 0.000000 -0.800000 -0.950753
v 0.000000 -0.751699 -1.000000
v -0.923879 -0.751699 -0.382684
v -0.878381 -0.800000 -0.363838
v -0.707107 -0.751699 -0.707107
v -0.672284 -0.800000 -0.672284
v -0.382683 -0.751699 -0.923880
v -0.363837 -0.800000 -0.878381
v 0.000000 -0.752454 -0.800000
v 0.000000 -0.800000 -0.848477
v -0.783891 -0.800000 -0.324698
v -0.739104 -0.752454 -0.306147
v -0.599964 -0.800000 -0.599964
v -0.565685 -0.752454 -0.565686
v -0.324698 -0.800000 -0.783891
v -0.306146 -0.752454 -0.739104
v 1.000414 -0.668990 0.000000
v 1.527351 0.000000 1.527351
v 5.091169 0.000000 0.000000
v 0.707107 -0.433188 0.707107
v 1.000000 0.000000 0.000000
v 0.923880 0.000000 0.382684
v 0.707107 0.000000 0.707107
v 0.382683 0.000000 0.923880
v 0.800000 0.000000 0.000000
v 0.739104 0.000000 0.306147
v 0.565685 0.000000 0.565686
v 0.306146 0.000000 0.739104
v 1.000000 -0.751699 0.000000
v 0.950753 -0.800000 0.000000
v 0.923879 -0.751699 0.382684
v 0.878381 -0.800000 0.363838
v 0.707107 -0.751699 0.707107
v 0.672284 -0.800000 0.672284
v 0.382683 -0.751699 0.923880
v 0.363837 -0.800000 0.878381
v 0.848477 -0.800000 0.000000
v 0.800000 -0.752454 0.000000
v 0.783891 -0.800000 0.324698
v 0.739104 -0.752454 0.306147
v 0.599964 -0.800000 0.599964
v 0.565685 -0.752454 0.565686
v 0.324698 -0.800000 0.783891
v 0.306146 -0.752454 0.739104
v -1.000414 -0.668990 0.000000
v -1.527351 0.000000 1.527351
v 0.000000 0.000000 5.091169
v -5.091169 0.000000 0.000000
v 0.000000 -0.668784 1.001725
v -0.707107 -0.433188 0.707107
v 0.000000 0.000000 1.000000
v -1.000000 0.000000 0.000000
v -0.923880 0.000000 0.382684
v -0.707107 0.000000 0.707107
v -0.382683 0.000000 0.923880
v 0.000000 0.000000 0.800000
v -0.800000 0.000000 0.000000
v -0.739104 0.000000 0.306147
v -0.565685 0.000000 0.565686
v -0.306146 0.000000 0.739104
v 0.000000 -0.800000 0.950753
v 0.000000 -0.751699 1.000000
v -1.000000 -0.751699 0.000000
v -0.950753 -0.800000 0.000000
v -0.923879 -0.751699 0.382684
v -0.878381 -0.800000 0.363838
v -0.707107 -0.751699 0.707107
v -0.672284 -0.800000 0.672284
v -0.382683 -0.751699 0.923880
v -0.363837 -0.800000 0.878381
v 0.000000 -0.752454 0.800000
v 0.000000 -0.800000 0.848477
v -0.848477 -0.800000 0.000000
v -0.800000 -0.752454 0.000000
v -0.783891 -0.800000 0.324698
v -0.739104 -0.752454 0.306147
v -0.599964 -0.800000 0.599964
v -0.565685 -0.752454 0.565686
v -0.324698 -0.800000 0.783891
v -0.306146 -0.752454 0.739104
vn 0.3534 0.9236 -0.1483
vn 0.1483 0.9236 -0.3534
vn -0.6464 0.4055 0.6464
vn -0.3498 0.4055 0.8445
vn -0.3827 -0.0000 0.9239
vn -0.7071 -0.0000 0.7071
vn -0.8445 0.4055 0.3498
vn -0.9239 -0.0000 0.3827
vn 0.8580 0.3710 -0.3554
vn 0.9286 0.3710 -0.0000
vn 1.0000 -0.0000 -0.0000
vn 0.9239 -0.0000 -0.3827
vn 0.6566 0.3710 -0.6566
vn 0.7071 -0.0000 -0.7071
vn 0.3554 0.3710 -0.8580
vn 0.3827 -0.0000 -0.9239
vn -0.0000 0.3710 -0.9286
vn -0.0000 -0.0000 -1.0000
vn 0.2950 0.9088 -0.2950
vn 0.1597 0.9088 -0.3855
vn -0.1287 0.9417 0.3107
vn -0.2378 0.9417 0.2378
vn -0.9141 0.4055 -0.0000
vn -1.0000 -0.0000 -0.0000
vn 0.4172 0.9088 -0.0000
vn 0.3855 0.9088 -0.1597
vn -0.3107 0.9417 0.1287
vn -0.3363 0.9417 -0.0000
vn -0.0000 0.9088 -0.4172
vn -0.0000 0.4055 0.9141
vn -0.0000 -0.0000 1.0000
vn -0.0000 0.9417 0.3363
vn -0.3534 0.9236 -0.1483
vn -0.1483 0.9236 -0.3534
vn 0.6464 0.4055 0.6464
vn 0.7071 -0.0000 0.7071
vn 0.3827 -0.0000 0.9239
vn 0.3498 0.4055 0.8445
vn 0.8445 0.4055 0.3498
vn 0.9239 -0.0000 0.3827
vn -0.8580 0.3710 -0.3554
vn -0.9239 -0.0000 -0.3827
vn -0.9286 0.3710 -0.0000
vn -0.6566 0.3710 -0.6566
vn -0.7071 -0.0000 -0.7071
vn -0.3554 0.3710 -0.8580
vn -0.3827 -0.0000 -0.9239
vn -0.2950 0.9088 -0.2950
vn 0.2378 0.9417 0.2378
vn 0.1287 0.9417 0.3107
vn -0.1597 0.9088 -0.3855
vn 0.9141 0.4055 -0.0000
vn -0.4172 0.9088 -0.0000
vn 0.3363 0.9417 -0.0000
vn 0.3107 0.9417 0.1287
vn -0.3855 0.9088 -0.1597
vn 0.3534 0.9236 0.1483
vn 0.1483 0.9236 0.3534
vn -0.6464 0.4055 -0.6464
vn -0.3498 0.4055 -0.8445
vn -0.8445 0.4055 -0.3498
vn 0.8580 0.3710 0.3554
vn 0.6566 0.3710 0.6566
vn 0.3554 0.3710 0.8580
vn -0.0000 0.3710 0.9286
vn 0.2950 0.9088 0.2950
vn -0.2378 0.9417 -0.2378
vn -0.1287 0.9417 -0.3107
vn 0.1597 0.9088 0.3855
vn -0.3107 0.9417 -0.1287
vn 0.3855 0.9088 0.1597
vn -0.0000 0.9088 0.4172
vn -0.0000 0.4055 -0.9141
vn -0.0000 0.9417 -0.3363
vn -0.3534 0.9236 0.1483
vn -0.1483 0.9236 0.3534
vn 0.6464 0.4055 -0.6464
vn 0.3498 0.4055 -0.8445
vn 0.8445 0.4055 -0.3498
vn -0.8580 0.3710 0.3554
vn -0.6566 0.3710 0.6566
vn -0.3554 0.3710 0.8580
vn -0.2950 0.9088 0.2950
vn -0.1597 0.9088 0.3855
vn 0.1287 0.9417 -0.3107
vn 0.2378 0.9417 -0.2378
vn -0.3855 0.9088 0.1597
vn 0.3107 0.9417 -0.1287
vn 0.3534 -0.9236 -0.1483
vn 0.1483 -0.9236 -0.3534
vn -0.6464 -0.4055 0.6464
vn -0.3498 -0.4055 0.8445
vn -0.8445 -0.4055 0.3498
vn 0.8580 -0.3710 -0.3554
vn 0.9286 -0.3710 -0.0000
vn 0.6566 -0.3710 -0.6566
vn 0.3554 -0.3710 -0.8580
vn -0.0000 -0.3710 -0.9286
vn 0.2950 -0.9088 -0.2950
vn -0.2378 -0.9417 0.2378
vn -0.1287 -0.9417 0.3107
vn 0.1597 -0.9088 -0.3855
vn -0.9141 -0.4055 -0.0000
vn 0.4172 -0.9088 -0.0000
vn -0.3363 -0.9417 -0.0000
vn -0.3107 -0.9417 0.1287
vn 0.3855 -0.9088 -0.1597
vn -0.0000 -0.9088 -0.4172
vn -0.0000 -0.4055 0.9141
vn -0.0000 -0.9417 0.3363
vn -0.3534 -0.9236 -0.1483
vn -0.1483 -0.9236 -0.3534
vn 0.6464 -0.4055 0.6464
vn 0.3498 -0.4055 0.8445
vn 0.8445 -0.4055 0.3498
vn -0.8580 -0.3710 -0.3554
vn -0.9286 -0.3710 -0.0000
vn -0.6566 -0.3710 -0.6566
vn -0.3554 -0.3710 -0.8580
vn -0.2950 -0.9088 -0.2950
vn -0.1597 -0.9088 -0.3855
vn 0.1287 -0.9417 0.3107
vn 0.2378 -0.9417 0.2378
vn 0.9141 -0.4055 -0.0000
vn -0.4172 -0.9088 -0.0000
vn -0.3855 -0.9088 -0.1597
vn 0.3107 -0.9417 0.1287
vn 0.3363 -0.9417 -0.0000
vn 0.3534 -0.9236 0.1483
vn 0.1483 -0.9236 0.3534
vn -0.6464 -0.4055 -0.6464
vn -0.3498 -0.4055 -0.8445
vn -0.8445 -0.4055 -0.3498
vn 0.8580 -0.3710 0.3554
vn 0.6566 -0.3710 0.6566
vn 0.3554 -0.3710 0.8580
vn -0.0000 -0.3710 0.9286
vn 0.2950 -0.9088 0.2950
vn 0.1597 -0.9088 0.3855
vn -0.1287 -0.9417 -0.3107
vn -0.2378 -0.9417 -0.2378
vn 0.3855 -0.9088 0.1597
vn -0.3107 -0.9417 -0.1287
vn -0.0000 -0.9088 0.4172
vn -0.0000 -0.4055 -0.9141
vn -0.0000 -0.9417 -0.3363
vn -0.3534 -0.9236 0.1483
vn -0.1483 -0.9236 0.3534
vn 0.6464 -0.4055 -0.6464
vn 0.3498 -0.4055 -0.8445
vn 0.8445 -0.4055 -0.3498
vn -0.8580 -0.3710 0.3554
vn -0.6566 -0.3710 0.6566
vn -0.3554 -0.3710 0.8580
vn -0.2950 -0.9088 0.2950
vn 0.2378 -0.9417 -0.2378
vn 0.1287 -0.9417 -0.3107
vn -0.1597 -0.9088 0.3855
vn 0.3107 -0.9417 -0.1287
vn -0.3855 -0.9088 0.1597
vt 0.225716 0.932594
vt 0.052874 0.758167
vt 0.376532 0.060687
vt 0.376532 0.882444
vt 0.721953 0.758168
vt 0.549111 0.932594
vt 0.398296 0.882707
vt 0.398296 0.060687
vt 0.769628 0.311573
vt 0.839172 0.294838
vt 0.875494 0.457272
vt 0.813842 0.472453
vt 0.701359 0.335842
vt 0.753427 0.490953
vt 0.681128 0.287975
vt 0.606794 0.325805
vt 0.546129 0.172386
vt 0.625763 0.140896
vt 0.755785 0.262516
vt 0.709440 0.112113
vt 0.831564 0.245360
vt 0.795315 0.089442
vt 0.911378 0.238763
vt 0.882933 0.072503
vt 0.759749 0.276234
vt 0.833785 0.259205
vt 0.836926 0.280247
vt 0.765553 0.297151
vt 0.638948 0.368169
vt 0.694399 0.512445
vt 0.615832 0.338595
vt 0.686858 0.301368
vt 0.695418 0.321791
vt 0.630292 0.356267
vt 0.910398 0.253433
vt 0.907007 0.288384
vt 0.939895 0.443629
vt 0.907739 0.274538
s 0
usemtl Shuriken_lp
f 1/1/1 73/2/1 94/3/1 14/4/1
f 73/5/2 1/6/2 32/7/2 123/8/2
s 1
f 11/9/3 13/10/4 80/11/5 79/12/6
f 9/13/7 11/9/3 79/12/6 78/14/8
f 2/15/9 34/16/10 125/17/11 75/18/12
f 4/19/13 2/15/9 75/18/12 76/20/14
f 6/21/15 4/19/13 76/20/14 77/22/16
f 17/23/17 6/21/15 77/22/16 97/24/18
f 5/25/19 7/26/20 12/27/21 10/28/22
f 43/29/23 9/13/7 78/14/8 129/30/24
f 35/31/25 3/32/26 8/33/27 42/34/28
f 3/32/26 5/25/19 10/28/22 8/33/27
f 3/32/26 35/31/25 34/16/10 2/15/9
f 5/25/19 3/32/26 2/15/9 4/19/13
f 7/26/20 5/25/19 4/19/13 6/21/15
f 16/35/29 7/26/20 6/21/15 17/23/17
f 13/10/4 24/36/30 101/37/31 80/11/5
f 9/13/7 43/29/23 42/34/28 8/33/27
f 11/9/3 9/13/7 8/33/27 10/28/22
f 13/10/4 11/9/3 10/28/22 12/27/21
f 24/36/30 13/10/4 12/27/21 25/38/32
f 7/26/20 16/35/29 25/38/32 12/27/21
s 0
f 15/1/33 14/4/33 94/3/33 93/2/33
f 93/5/34 152/8/34 50/7/34 15/6/34
s 1
f 29/9/35 103/12/36 104/11/37 31/10/38
f 27/13/39 102/14/40 103/12/36 29/9/35
f 18/15/41 98/18/42 156/17/24 55/16/43
f 20/19/44 99/20/45 98/18/42 18/15/41
f 22/21/46 100/22/47 99/20/45 20/19/44
f 17/23/17 97/24/18 100/22/47 22/21/46
f 21/25/48 28/28/49 30/27/50 23/26/51
f 66/29/52 161/30/11 102/14/40 27/13/39
f 56/31/53 65/34/54 26/33/55 19/32/56
f 19/32/56 26/33/55 28/28/49 21/25/48
f 19/32/56 18/15/41 55/16/43 56/31/53
f 21/25/48 20/19/44 18/15/41 19/32/56
f 23/26/51 22/21/46 20/19/44 21/25/48
f 16/35/29 17/23/17 22/21/46 23/26/51
f 31/10/38 104/11/37 101/37/31 24/36/30
f 27/13/39 26/33/55 65/34/54 66/29/52
f 29/9/35 28/28/49 26/33/55 27/13/39
f 31/10/38 30/27/50 28/28/49 29/9/35
f 24/36/30 25/38/32 30/27/50 31/10/38
f 23/26/51 30/27/50 25/38/32 16/35/29
s 0
f 33/1/57 51/4/57 151/3/57 122/2/57
f 122/5/58 123/8/58 32/7/58 33/6/58
s 1
f 47/9/59 131/12/45 132/11/47 49/10/60
f 45/13/61 130/14/42 131/12/45 47/9/59
f 36/15/62 126/18/40 125/17/11 34/16/10
f 38/19/63 127/20/36 126/18/40 36/15/62
f 40/21/64 128/22/37 127/20/36 38/19/63
f 54/23/65 155/24/31 128/22/37 40/21/64
f 39/25/66 46/28/67 48/27/68 41/26/69
f 43/29/23 129/30/24 130/14/42 45/13/61
f 35/31/25 42/34/28 44/33/70 37/32/71
f 37/32/71 44/33/70 46/28/67 39/25/66
f 37/32/71 36/15/62 34/16/10 35/31/25
f 39/25/66 38/19/63 36/15/62 37/32/71
f 41/26/69 40/21/64 38/19/63 39/25/66
f 53/35/72 54/23/65 40/21/64 41/26/69
f 49/10/60 132/11/47 160/37/18 63/36/73
f 45/13/61 44/33/70 42/34/28 43/29/23
f 47/9/59 46/28/67 44/33/70 45/13/61
f 49/10/60 48/27/68 46/28/67 47/9/59
f 63/36/73 64/38/74 48/27/68 49/10/60
f 41/26/69 48/27/68 64/38/74 53/35/72
s 0
f 52/1/75 150/2/75 151/3/75 51/4/75
f 150/5/76 52/6/76 50/7/76 152/8/76
s 1
f 70/9/77 72/10/78 164/11/16 163/12/14
f 68/13/79 70/9/77 163/12/14 162/14/12
f 57/15/80 55/16/43 156/17/24 157/18/8
f 59/19/81 57/15/80 157/18/8 158/20/6
f 61/21/82 59/19/81 158/20/6 159/22/5
f 54/23/65 61/21/82 159/22/5 155/24/31
f 60/25/83 62/26/84 71/27/85 69/28/86
f 66/29/52 68/13/79 162/14/12 161/30/11
f 56/31/53 58/32/87 67/33/88 65/34/54
f 58/32/87 60/25/83 69/28/86 67/33/88
f 58/32/87 56/31/53 55/16/43 57/15/80
f 60/25/83 58/32/87 57/15/80 59/19/81
f 62/26/84 60/25/83 59/19/81 61/21/82
f 53/35/72 62/26/84 61/21/82 54/23/65
f 72/10/78 63/36/73 160/37/18 164/11/16
f 68/13/79 66/29/52 65/34/54 67/33/88
f 70/9/77 68/13/79 67/33/88 69/28/86
f 72/10/78 70/9/77 69/28/86 71/27/85
f 63/36/73 72/10/78 71/27/85 64/38/74
f 62/26/84 53/35/72 64/38/74 71/27/85
s 0
f 74/1/89 95/4/89 94/3/89 73/2/89
f 73/5/90 123/8/90 121/7/90 74/6/90
s 1
f 90/9/91 79/12/6 80/11/5 92/10/92
f 88/13/93 78/14/8 79/12/6 90/9/91
f 81/15/94 75/18/12 125/17/11 133/16/95
f 83/19/96 76/20/14 75/18/12 81/15/94
f 85/21/97 77/22/16 76/20/14 83/19/96
f 106/23/98 97/24/18 77/22/16 85/21/97
f 84/25/99 89/28/100 91/27/101 86/26/102
f 142/29/103 129/30/24 78/14/8 88/13/93
f 134/31/104 141/34/105 87/33/106 82/32/107
f 82/32/107 87/33/106 89/28/100 84/25/99
f 82/32/107 81/15/94 133/16/95 134/31/104
f 84/25/99 83/19/96 81/15/94 82/32/107
f 86/26/102 85/21/97 83/19/96 84/25/99
f 105/35/108 106/23/98 85/21/97 86/26/102
f 92/10/92 80/11/5 101/37/31 113/36/109
f 88/13/93 87/33/106 141/34/105 142/29/103
f 90/9/91 89/28/100 87/33/106 88/13/93
f 92/10/92 91/27/101 89/28/100 90/9/91
f 113/36/109 114/38/110 91/27/101 92/10/92
f 86/26/102 91/27/101 114/38/110 105/35/108
s 0
f 96/1/111 93/2/111 94/3/111 95/4/111
f 93/5/112 96/6/112 149/7/112 152/8/112
s 1
f 118/9/113 120/10/114 104/11/37 103/12/36
f 116/13/115 118/9/113 103/12/36 102/14/40
f 107/15/116 167/16/117 156/17/24 98/18/42
f 109/19/118 107/15/116 98/18/42 99/20/45
f 111/21/119 109/19/118 99/20/45 100/22/47
f 106/23/98 111/21/119 100/22/47 97/24/18
f 110/25/120 112/26/121 119/27/122 117/28/123
f 178/29/124 116/13/115 102/14/40 161/30/11
f 168/31/125 108/32/126 115/33/127 177/34/128
f 108/32/126 110/25/120 117/28/123 115/33/127
f 108/32/126 168/31/125 167/16/117 107/15/116
f 110/25/120 108/32/126 107/15/116 109/19/118
f 112/26/121 110/25/120 109/19/118 111/21/119
f 105/35/108 112/26/121 111/21/119 106/23/98
f 120/10/114 113/36/109 101/37/31 104/11/37
f 116/13/115 178/29/124 177/34/128 115/33/127
f 118/9/113 116/13/115 115/33/127 117/28/123
f 120/10/114 118/9/113 117/28/123 119/27/122
f 113/36/109 120/10/114 119/27/122 114/38/110
f 112/26/121 105/35/108 114/38/110 119/27/122
s 0
f 124/1/129 122/2/129 151/3/129 153/4/129
f 122/5/130 124/6/130 121/7/130 123/8/130
s 1
f 146/9/131 148/10/132 132/11/47 131/12/45
f 144/13/133 146/9/131 131/12/45 130/14/42
f 135/15/134 133/16/95 125/17/11 126/18/40
f 137/19/135 135/15/134 126/18/40 127/20/36
f 139/21/136 137/19/135 127/20/36 128/22/37
f 166/23/137 139/21/136 128/22/37 155/24/31
f 138/25/138 140/26/139 147/27/140 145/28/141
f 142/29/103 144/13/133 130/14/42 129/30/24
f 134/31/104 136/32/142 143/33/143 141/34/105
f 136/32/142 138/25/138 145/28/141 143/33/143
f 136/32/142 134/31/104 133/16/95 135/15/134
f 138/25/138 136/32/142 135/15/134 137/19/135
f 140/26/139 138/25/138 137/19/135 139/21/136
f 165/35/144 140/26/139 139/21/136 166/23/137
f 148/10/132 175/36/145 160/37/18 132/11/47
f 144/13/133 142/29/103 141/34/105 143/33/143
f 146/9/131 144/13/133 143/33/143 145/28/141
f 148/10/132 146/9/131 145/28/141 147/27/140
f 175/36/145 148/10/132 147/27/140 176/38/146
f 140/26/139 165/35/144 176/38/146 147/27/140
s 0
f 154/1/147 153/4/147 151/3/147 150/2/147
f 150/5/148 152/8/148 149/7/148 154/6/148
s 1
f 182/9/149 163/12/14 164/11/16 184/10/150
f 180/13/151 162/14/12 163/12/14 182/9/149
f 169/15/152 157/18/8 156/17/24 167/16/117
f 171/19/153 158/20/6 157/18/8 169/15/152
f 173/21/154 159/22/5 158/20/6 171/19/153
f 166/23/137 155/24/31 159/22/5 173/21/154
f 172/25/155 181/28/156 183/27/157 174/26/158
f 178/29/124 161/30/11 162/14/12 180/13/151
f 168/31/125 177/34/128 179/33/159 170/32/160
f 170/32/160 179/33/159 181/28/156 172/25/155
f 170/32/160 169/15/152 167/16/117 168/31/125
f 172/25/155 171/19/153 169/15/152 170/32/160
f 174/26/158 173/21/154 171/19/153 172/25/155
f 165/35/144 166/23/137 173/21/154 174/26/158
f 184/10/150 164/11/16 160/37/18 175/36/145
f 180/13/151 179/33/159 177/34/128 178/29/124
f 182/9/149 181/28/156 179/33/159 180/13/151
f 184/10/150 183/27/157 181/28/156 182/9/149
f 175/36/145 176/38/146 183/27/157 184/10/150
f 174/26/158 183/27/157 176/38/146 165/35/144
